# xmcd
#
# Track frame offsets:
#	150
#	26076
#	42800
#	63011
#	81412
#	106695
#	137388
#	152389
#	170485
#	186636
#	196690
#	233631
#
# Disc length: 3477 seconds
#
# Revision: 4
# Processed by: cddbd v1.5.2PL0 Copyright (c) Steve Scherf et al.
# Submitted via: EZCDAudioConverter 3.0.8.1
#
DISCID=8c0d930c
DTITLE=Various Artist - A History of Progressive Blues CD1
DYEAR=2003
DGENRE=Blues
TTITLE0=PETER GREEN SPLINTER GROUP - Crawlin' King Snake
TTITLE1=DAN McCAFFERTY - Honky Tonk Downstairs
TTITLE2=RAB McCULLOCH - Louisiana Woman
TTITLE3=MAGGIE BELL - Jealousy
TTITLE4=EDGAR WINTER - White Man's Blues
TTITLE5=SPENCER DAVIS GROUP - Alec In Transitland
TTITLE6=FRANKIE MILLER - Darlin'
TTITLE7=THE DOOBIE BROTHERS - Ordinary Man
TTITLE8=SNOWY WHITE'S BLUES AGENCY - The Agency Blues
TTITLE9=BIG TOWN PLAYBOYS - Bobsit In Blues
TTITLE10=IAN GILLAN - No More Cane On The Brazos
TTITLE11=DICK HEXALL SMITH feat, JOHN MAYALL and CLEM CLEMSON - If You Know Don'
TTITLE11=t Love Me, Why In The World Don't You Leave Me Be
EXTD=
EXTT0=
EXTT1=
EXTT2=
EXTT3=
EXTT4=
EXTT5=
EXTT6=
EXTT7=
EXTT8=
EXTT9=
EXTT10=
EXTT11=
PLAYORDER=
